<?xml version="1.0" ?><svg height="19.996094" id="svg8" version="1.1" viewBox="0 0 5.1344799 5.2906333" width="19.405909" xmlns="http://www.w3.org/2000/svg" xmlns:cc="http://creativecommons.org/ns#" xmlns:dc="http://purl.org/dc/elements/1.1/" xmlns:rdf="http://www.w3.org/1999/02/22-rdf-syntax-ns#" xmlns:svg="http://www.w3.org/2000/svg"><defs id="defs2"/><g id="layer8" transform="translate(-17.992184,-17.463534)"><g id="FLAT-7"><path d="m 18.7849,17.463534 c -0.435238,0 -0.792716,0.357476 -0.792716,0.792716 v 3.705201 c -1e-6,0.43524 0.35747,0.792716 0.792716,0.792716 h 2.646867 c 0.435238,0 0.792717,-0.357476 0.792717,-0.792716 V 18.25625 c 0,-0.43524 -0.357479,-0.792716 -0.792717,-0.792716 z" id="path1440" style="color:#000000;font-style:normal;font-variant:normal;font-weight:normal;font-stretch:normal;font-size:medium;line-height:normal;font-family:sans-serif;font-variant-ligatures:normal;font-variant-position:normal;font-variant-caps:normal;font-variant-numeric:normal;font-variant-alternates:normal;font-variant-east-asian:normal;font-feature-settings:normal;font-variation-settings:normal;text-indent:0;text-align:start;text-decoration:none;text-decoration-line:none;text-decoration-style:solid;text-decoration-color:#000000;letter-spacing:normal;word-spacing:normal;text-transform:none;writing-mode:lr-tb;direction:ltr;text-orientation:mixed;dominant-baseline:auto;baseline-shift:baseline;text-anchor:start;white-space:normal;shape-padding:0;shape-margin:0;inline-size:0;clip-rule:nonzero;display:inline;overflow:visible;visibility:visible;isolation:auto;mix-blend-mode:normal;color-interpolation:sRGB;color-interpolation-filters:linearRGB;solid-color:#000000;solid-opacity:1;vector-effect:none;fill:#82bbfb;fill-opacity:1;fill-rule:nonzero;stroke:none;stroke-width:0.529167;stroke-linecap:round;stroke-linejoin:round;stroke-miterlimit:4;stroke-dasharray:none;stroke-dashoffset:0;stroke-opacity:1;paint-order:markers fill stroke;color-rendering:auto;image-rendering:auto;shape-rendering:auto;text-rendering:auto;enable-background:accumulate;stop-color:#000000"/><path d="m 22.269442,17.90175 c -0.147582,0 -0.295092,0.05531 -0.406177,0.166398 L 21.343401,18.58853 A 0.2645835,0.2645835 0 0 0 21.16615,18.521351 H 19.051034 A 0.2645835,0.2645835 0 0 0 18.7849,18.7849 a 0.2645835,0.2645835 0 0 0 0.266134,0.266134 h 1.830379 l -0.52865,0.529167 H 19.051034 A 0.2645835,0.2645835 0 0 0 18.7849,19.84375 0.2645835,0.2645835 0 0 0 19.051034,20.1073 h 0.840259 l -0.301274,0.982369 a 0.26460996,0.26460996 0 0 0 0.318327,0.334347 l 1.058334,-0.265617 a 0.26460996,0.26460996 0 0 0 0.122989,-0.06873 l 1.851567,-1.853117 c 0.247237,-0.247238 0.247238,-0.655549 0,-0.902787 L 22.675619,18.068148 C 22.564535,17.957064 22.417025,17.90175 22.269442,17.90175 Z" id="path303" style="color:#000000;font-style:normal;font-variant:normal;font-weight:normal;font-stretch:normal;font-size:medium;line-height:normal;font-family:sans-serif;font-variant-ligatures:normal;font-variant-position:normal;font-variant-caps:normal;font-variant-numeric:normal;font-variant-alternates:normal;font-variant-east-asian:normal;font-feature-settings:normal;font-variation-settings:normal;text-indent:0;text-align:start;text-decoration:none;text-decoration-line:none;text-decoration-style:solid;text-decoration-color:#000000;letter-spacing:normal;word-spacing:normal;text-transform:none;writing-mode:lr-tb;direction:ltr;text-orientation:mixed;dominant-baseline:auto;baseline-shift:baseline;text-anchor:start;white-space:normal;shape-padding:0;shape-margin:0;inline-size:0;clip-rule:nonzero;display:inline;overflow:visible;visibility:visible;isolation:auto;mix-blend-mode:normal;color-interpolation:sRGB;color-interpolation-filters:linearRGB;solid-color:#000000;solid-opacity:1;vector-effect:none;fill:#007ff9;fill-opacity:1;fill-rule:nonzero;stroke:none;stroke-width:0.529167;stroke-linecap:round;stroke-linejoin:round;stroke-miterlimit:4;stroke-dasharray:none;stroke-dashoffset:0;stroke-opacity:1;color-rendering:auto;image-rendering:auto;shape-rendering:auto;text-rendering:auto;enable-background:accumulate;stop-color:#000000"/><path d="m 83.998047,79.720703 a 17.202391,32.202391 69.881832 0 1 -2.082031,0.808594 17.202391,32.202391 69.881832 0 1 -13.810547,3.214844 C 68.439353,85.033665 69.609466,86 70.998047,86 h 10.003906 c 1.644994,0 2.996094,-1.351092 2.996094,-2.996094 z" id="path1448" style="color:#000000;font-style:normal;font-variant:normal;font-weight:normal;font-stretch:normal;font-size:medium;line-height:normal;font-family:sans-serif;font-variant-ligatures:normal;font-variant-position:normal;font-variant-caps:normal;font-variant-numeric:normal;font-variant-alternates:normal;font-variant-east-asian:normal;font-feature-settings:normal;font-variation-settings:normal;text-indent:0;text-align:start;text-decoration:none;text-decoration-line:none;text-decoration-style:solid;text-decoration-color:#000000;letter-spacing:normal;word-spacing:normal;text-transform:none;writing-mode:lr-tb;direction:ltr;text-orientation:mixed;dominant-baseline:auto;baseline-shift:baseline;text-anchor:start;white-space:normal;shape-padding:0;shape-margin:0;inline-size:0;clip-rule:nonzero;display:inline;overflow:visible;visibility:visible;isolation:auto;mix-blend-mode:normal;color-interpolation:sRGB;color-interpolation-filters:linearRGB;solid-color:#000000;solid-opacity:1;vector-effect:none;fill:#65a3fc;fill-opacity:1;fill-rule:nonzero;stroke:none;stroke-width:2;stroke-linecap:round;stroke-linejoin:round;stroke-miterlimit:4;stroke-dasharray:none;stroke-dashoffset:0;stroke-opacity:1;paint-order:markers fill stroke;color-rendering:auto;image-rendering:auto;shape-rendering:auto;text-rendering:auto;enable-background:accumulate;stop-color:#000000" transform="scale(0.26458334)"/></g></g></svg>